<?xml version="1.0" standalone="no"?>
<!DOCTYPE svg PUBLIC "-//W3C//DTD SVG 20010904//EN"
 "http://www.w3.org/TR/2001/REC-SVG-20010904/DTD/svg10.dtd">
<svg version="1.0" xmlns="http://www.w3.org/2000/svg"
 width="456.000000pt" height="456.000000pt" viewBox="0 0 456.000000 456.000000"
 preserveAspectRatio="xMidYMid meet">
<metadata>
Created by potrace 1.14, written by Peter Selinger 2001-2017
</metadata>
<g transform="translate(0.000000,456.000000) scale(0.100000,-0.100000)"
fill="#000000" stroke="none">
<path d="M1985 3630 c-166 -43 -307 -106 -412 -184 -65 -47 -164 -142 -196
-186 -10 -14 -31 -43 -47 -65 -51 -69 -123 -227 -149 -331 -9 -33 -19 -45 -45
-58 -19 -9 -41 -16 -50 -16 -20 0 -145 -50 -211 -85 -202 -105 -358 -307 -437
-565 -20 -65 -23 -97 -23 -235 0 -141 3 -168 23 -230 80 -240 221 -432 386
-527 135 -77 267 -124 391 -139 106 -12 2058 -11 2153 1 164 21 380 117 495
221 122 109 239 300 282 459 26 98 31 277 10 380 -35 180 -128 352 -260 485
-76 77 -233 170 -335 200 -14 4 -29 11 -35 15 -17 13 -113 30 -165 30 -53 0
-90 23 -90 56 0 60 -111 301 -178 384 -60 76 -174 189 -227 225 -79 53 -253
136 -329 157 -125 34 -148 37 -296 37 -127 0 -159 -4 -255 -29z m365 -160
c159 -20 358 -118 498 -245 54 -49 120 -140 164 -230 27 -53 43 -115 30 -115
-5 0 -21 -18 -38 -39 -16 -22 -32 -37 -36 -34 -5 2 -8 -1 -8 -7 0 -10 -7 -21
-37 -54 -7 -8 -9 -17 -5 -21 4 -4 2 -5 -3 -4 -10 3 -19 -1 -80 -38 -16 -10
-45 -27 -64 -38 -19 -11 -57 -42 -85 -69 -28 -26 -58 -53 -66 -60 -8 -6 -28
-27 -44 -46 -18 -22 -36 -34 -47 -32 -20 3 -27 -14 -8 -20 6 -2 1 -14 -10 -27
-12 -13 -21 -19 -21 -12 0 7 -5 9 -10 6 -6 -4 -8 -11 -5 -16 4 -5 -6 -21 -20
-35 -14 -14 -33 -43 -42 -65 -8 -21 -21 -39 -28 -39 -15 0 -15 -31 0 -42 6 -4
0 -8 -11 -8 -17 0 -20 -5 -16 -25 2 -15 0 -25 -7 -25 -7 0 -9 -4 -6 -10 4 -6
-1 -7 -11 -3 -13 5 -15 2 -9 -17 6 -18 4 -22 -8 -17 -11 4 -15 1 -12 -14 2
-11 -7 -31 -21 -46 -13 -14 -23 -31 -21 -37 4 -11 -48 -66 -63 -66 -4 0 -11
-14 -15 -30 -4 -16 -11 -30 -16 -30 -6 0 -7 5 -4 10 3 6 -1 10 -10 10 -9 0
-13 -5 -10 -10 4 -6 1 -18 -6 -26 -6 -8 -9 -17 -5 -21 3 -3 -4 -11 -17 -18
-12 -6 -21 -19 -19 -28 2 -11 -2 -15 -11 -11 -16 6 -31 -22 -20 -39 4 -7 0 -8
-11 -4 -9 4 -15 3 -11 -2 3 -5 -7 -19 -22 -30 -16 -11 -38 -31 -50 -43 -13
-12 -23 -19 -23 -15 0 10 -50 -40 -50 -50 -1 -9 -298 -156 -340 -168 -14 -5
-50 -20 -80 -35 -124 -62 -287 -139 -321 -150 -32 -12 -42 -10 -105 15 -38 15
-91 42 -119 60 -64 41 -198 172 -220 216 -10 19 -23 41 -30 49 -7 8 -16 26
-20 40 -4 14 -16 43 -26 66 -36 82 -49 238 -29 362 12 72 52 178 89 237 27 44
121 158 134 164 4 1 16 11 25 21 53 57 181 121 297 149 162 40 164 40 179 69
7 15 23 75 34 133 29 151 100 280 216 393 216 209 483 302 766 266z m1065
-875 c47 -9 112 -32 171 -61 167 -82 320 -258 359 -414 31 -123 36 -213 16
-329 -19 -114 -41 -169 -100 -261 -37 -57 -61 -81 -72 -74 -4 2 -6 -3 -5 -10
1 -16 -113 -119 -157 -142 -15 -8 -32 -12 -37 -9 -6 3 -10 0 -10 -8 0 -15
-110 -61 -185 -77 -22 -5 -236 -9 -475 -9 -430 0 -434 0 -390 18 25 10 97 43
160 73 167 80 234 111 339 155 84 36 98 39 135 31 23 -6 82 -8 131 -5 74 3
102 10 155 35 105 49 207 159 228 247 41 161 10 313 -82 414 -74 80 -222 151
-315 151 -51 0 -161 -33 -216 -66 -70 -41 -137 -113 -159 -171 -12 -31 -30
-57 -45 -66 -42 -24 -232 -107 -247 -107 -27 0 -9 176 26 247 11 23 20 47 20
54 0 39 120 193 191 245 177 130 366 177 564 139z m-40 -496 c83 -44 127 -115
127 -204 1 -97 -74 -206 -150 -219 -59 -9 -154 -6 -192 7 -45 16 -93 1 -255
-80 -233 -117 -390 -193 -397 -193 -5 0 -82 -36 -173 -80 -91 -44 -168 -80
-172 -80 -3 0 -14 -6 -22 -14 -44 -37 -108 -46 -348 -46 -128 0 -233 3 -233 8
0 4 26 19 58 34 31 15 125 59 207 99 83 39 166 77 185 84 31 12 134 60 445
210 50 24 101 46 115 50 14 4 45 18 70 30 25 13 117 58 205 100 88 42 166 79
174 83 7 4 23 33 35 63 26 68 57 107 116 142 58 35 146 37 205 6z"/>
</g>
</svg>
